<svg xmlns="http://www.w3.org/2000/svg" xmlns:xlink="http://www.w3.org/1999/xlink" viewBox="0,0,256,256" width="1600px" height="1600px" fill-rule="nonzero" fill="none"><defs><linearGradient x1="32" y1="9.083" x2="32" y2="54.676" gradientUnits="userSpaceOnUse" id="color-1"><stop offset="0" stop-color="#00c6ff"></stop><stop offset="1" stop-color="#0072ff"></stop></linearGradient><linearGradient x1="32" y1="17.143" x2="32" y2="46.857" gradientUnits="userSpaceOnUse" id="color-2"><stop offset="0" stop-color="#70dfff"></stop><stop offset="1" stop-color="#70afff"></stop></linearGradient></defs><g fill="none" fill-rule="nonzero" stroke="none" stroke-width="1" stroke-linecap="butt" stroke-linejoin="miter" stroke-miterlimit="10" stroke-dasharray="" stroke-dashoffset="0" font-family="none" font-weight="none" font-size="none" text-anchor="none" style="mix-blend-mode: normal"><g transform="scale(4,4)"><path d="M50,55h-36c-2.757,0 -5,-2.243 -5,-5v-36c0,-2.757 2.243,-5 5,-5h36c2.757,0 5,2.243 5,5v36c0,2.757 -2.243,5 -5,5zM14,11c-1.654,0 -3,1.346 -3,3v36c0,1.654 1.346,3 3,3h36c1.654,0 3,-1.346 3,-3v-36c0,-1.654 -1.346,-3 -3,-3z" fill="url(#color-1)"></path><path d="M34.154,37.572l10.846,9.285v-7.429l-8.671,-7.424l8.671,-7.433v-7.429l-15.154,12.99v-3.704l-10.846,-9.285v7.429l8.671,7.424l-8.671,7.433v7.429l15.154,-12.989z" fill="url(#color-2)" opacity="0.58"></path></g></g></svg>