<svg xmlns="http://www.w3.org/2000/svg" xmlns:xlink="http://www.w3.org/1999/xlink" viewBox="0,0,256,256" width="1600px" height="1600px" fill-rule="nonzero" fill="none"><defs><linearGradient x1="32" y1="8.14" x2="32" y2="55.861" gradientUnits="userSpaceOnUse" id="color-1"><stop offset="0" stop-color="#00c6ff"></stop><stop offset="1" stop-color="#0072ff"></stop></linearGradient><linearGradient x1="32" y1="15.659" x2="32" y2="48.341" gradientUnits="userSpaceOnUse" id="color-2"><stop offset="0" stop-color="#70dfff"></stop><stop offset="1" stop-color="#70afff"></stop></linearGradient></defs><g fill="none" fill-rule="nonzero" stroke="none" stroke-width="1" stroke-linecap="butt" stroke-linejoin="miter" stroke-miterlimit="10" stroke-dasharray="" stroke-dashoffset="0" font-family="none" font-weight="none" font-size="none" text-anchor="none" style="mix-blend-mode: normal"><g transform="scale(4,4)"><path d="M52,55.86c-0.234,0 -0.466,-0.082 -0.65,-0.24l-17,-14.561c-0.222,-0.19 -0.35,-0.467 -0.35,-0.759v-2.985l-21.349,18.304c-0.298,0.255 -0.714,0.313 -1.069,0.149c-0.354,-0.163 -0.582,-0.517 -0.582,-0.908v-11.43c0,-0.292 0.128,-0.569 0.349,-0.759l12.454,-10.68l-12.453,-10.661c-0.222,-0.19 -0.35,-0.468 -0.35,-0.76v-11.43c0,-0.391 0.228,-0.745 0.582,-0.908c0.355,-0.163 0.772,-0.104 1.068,0.148l17,14.561c0.222,0.19 0.35,0.468 0.35,0.76v2.985l21.349,-18.305c0.298,-0.256 0.715,-0.312 1.069,-0.149c0.354,0.163 0.582,0.517 0.582,0.908v11.43c0,0.292 -0.128,0.569 -0.349,0.759l-12.454,10.68l12.453,10.661c0.222,0.19 0.35,0.468 0.35,0.76v11.43c0,0.391 -0.228,0.745 -0.582,0.908c-0.134,0.062 -0.276,0.092 -0.418,0.092zM36,39.84l15,12.848v-8.798l-12.99,-11.12c-0.222,-0.19 -0.35,-0.468 -0.35,-0.76c0,-0.292 0.127,-0.569 0.349,-0.759l12.991,-11.141v-8.796l-21.349,18.305c-0.298,0.255 -0.715,0.312 -1.069,0.149c-0.354,-0.163 -0.582,-0.517 -0.582,-0.908v-4.7l-15,-12.848v8.798l12.99,11.12c0.222,0.19 0.35,0.468 0.35,0.76c0,0.292 -0.127,0.569 -0.349,0.759l-12.991,11.141v8.796l21.349,-18.305c0.298,-0.256 0.714,-0.312 1.069,-0.149c0.354,0.163 0.582,0.517 0.582,0.908z" fill="url(#color-1)"></path><path d="M38,38.919v-3.525l11,9.417v3.53zM15,44.809l11,-9.433v0.009l23,-19.721v3.527l-11,9.433v-0.009l-23,19.721zM15,19.189v-3.53l11,9.422v3.525z" fill="url(#color-2)" opacity="0.58"></path></g></g></svg>